<svg width="123" height="28" viewBox="0 0 123 28" fill="none" xmlns="http://www.w3.org/2000/svg">
<path d="M13.0641 3.40691C13.3717 2.50321 14.6498 2.50321 14.9574 3.40691L16.9256 9.18934C17.0636 9.59461 17.4442 9.86711 17.8723 9.86711H24.1391C25.119 9.86711 25.5142 11.1304 24.709 11.6888L19.7202 15.1487C19.3534 15.4032 19.1996 15.87 19.3435 16.2927L21.2677 21.9457C21.5785 22.8589 20.5438 23.6394 19.7511 23.0897L14.5806 19.5037C14.2379 19.266 13.7836 19.266 13.4408 19.5037L8.27032 23.0897C7.47766 23.6394 6.44293 22.8589 6.75377 21.9457L8.67797 16.2927C8.82184 15.87 8.66808 15.4032 8.3012 15.1487L3.31244 11.6888C2.5072 11.1304 2.90239 9.86711 3.88233 9.86711H10.1492C10.5773 9.86711 10.9579 9.59461 11.0958 9.18934L13.0641 3.40691Z" fill="#FFD058"/>
<path d="M36.623 3.55287C36.9223 2.63155 38.2258 2.63156 38.5251 3.55288L40.3522 9.17612C40.486 9.58815 40.87 9.86711 41.3032 9.86711H47.2157C48.1845 9.86711 48.5872 11.1067 47.8035 11.6761L43.0202 15.1516C42.6697 15.4062 42.523 15.8576 42.6569 16.2696L44.484 21.8929C44.7833 22.8142 43.7288 23.5803 42.9451 23.0109L38.1619 19.5356C37.8114 19.2809 37.3368 19.2809 36.9863 19.5356L32.203 23.0109C31.4193 23.5803 30.3648 22.8142 30.6641 21.8929L32.4912 16.2696C32.6251 15.8576 32.4784 15.4062 32.128 15.1516L27.3446 11.6761C26.5609 11.1067 26.9637 9.86711 27.9324 9.86711H33.8449C34.2781 9.86711 34.6621 9.58815 34.796 9.17612L36.623 3.55287Z" fill="#FFD058"/>
<path d="M60.191 3.40691C60.4986 2.50321 61.7767 2.50321 62.0843 3.40691L64.0526 9.18934C64.1905 9.59461 64.5711 9.86711 64.9992 9.86711H71.2661C72.246 9.86711 72.6412 11.1304 71.8359 11.6888L66.8472 15.1487C66.4803 15.4032 66.3265 15.87 66.4704 16.2927L68.3946 21.9457C68.7055 22.8589 67.6707 23.6394 66.8781 23.0897L61.7076 19.5037C61.3648 19.266 60.9105 19.266 60.5678 19.5037L55.3973 23.0897C54.6046 23.6394 53.5699 22.8589 53.8807 21.9457L55.8049 16.2927C55.9488 15.87 55.795 15.4032 55.4282 15.1487L50.4394 11.6888C49.6342 11.1304 50.0293 9.86711 51.0093 9.86711H57.2761C57.7042 9.86711 58.0848 9.59461 58.2228 9.18934L60.191 3.40691Z" fill="#FFD058"/>
<path d="M83.75 3.55287C84.0493 2.63155 85.3527 2.63156 85.6521 3.55288L87.4791 9.17612C87.613 9.58815 87.997 9.86711 88.4302 9.86711H94.3427C95.3114 9.86711 95.7142 11.1067 94.9305 11.6761L90.1471 15.1516C89.7966 15.4062 89.65 15.8576 89.7839 16.2696L91.6109 21.8929C91.9103 22.8142 90.8558 23.5803 90.0721 23.0109L85.2888 19.5356C84.9383 19.2809 84.4637 19.2809 84.1132 19.5356L79.33 23.0109C78.5462 23.5803 77.4917 22.8142 77.7911 21.8929L79.6182 16.2696C79.752 15.8576 79.6054 15.4062 79.2549 15.1516L74.4715 11.6761C73.6878 11.1067 74.0906 9.86711 75.0593 9.86711H80.9718C81.4051 9.86711 81.789 9.58815 81.9229 9.17612L83.75 3.55287Z" fill="#FFD058"/>
<path d="M107.318 3.40691C107.626 2.50321 108.904 2.50321 109.211 3.40691L111.18 9.18934C111.317 9.59461 111.698 9.86711 112.126 9.86711H118.393C119.373 9.86711 119.768 11.1304 118.963 11.6888L113.974 15.1487C113.607 15.4032 113.454 15.87 113.597 16.2927L115.522 21.9457C115.832 22.8589 114.798 23.6394 114.005 23.0897L108.835 19.5037C108.492 19.266 108.037 19.266 107.695 19.5037L102.524 23.0897C101.732 23.6394 100.697 22.8589 101.008 21.9457L102.932 16.2927C103.076 15.87 102.922 15.4032 102.555 15.1487L97.5663 11.6888C96.7611 11.1304 97.1563 9.86711 98.1362 9.86711H104.403C104.831 9.86711 105.212 9.59461 105.35 9.18934L107.318 3.40691Z" fill="#FFD058"/>
</svg>
